<svg xmlns="http://www.w3.org/2000/svg" version="1.1" viewBox="0 0 1020.000000 1798.000000" preserveAspectRatio="xMidYMid meet" xmlns:xlink="http://www.w3.org/1999/xlink">
	<g transform="translate(0.000000,1798.000000) scale(0.100000,-0.100000)" fill="#000000" stroke="none">
		<a xlink:href="https://www.google.com/">
			<path d="M3860 17944 c-311 -12 -577 -23 -591 -23 -21 -1 -38 -19 -92 -96 l-67 -94 35 -253 c19 -139 57 -419 84 -623 257 -1909 302 -2221 335 -2340 l33 -120 6 75 c4 41 18 475 32 965 14 489 29 893 33 897 4 3 222 103 485 221 l477 215 528 -25 527 -25 284 -126 c203 -91 286 -132 292 -147 4 -11 33 -144 63 -295 130 -649 290 -1430 292 -1427 7 7 15 482 19 1172 l6 790 -251 415 c-139 228 -255 418 -258 422 -4 4 -151 50 -327 103 -176 53 -505 152 -732 221 l-412 124 -118 -1 c-65 -1 -372 -12 -683 -25z"/>
		</a>
		<a xlink:href="https://www.youtube.com/watch?v=2TM63ing6jY">
			<path d="M3539 12400 l-245 -38 -395 -219 c-217 -120 -728 -398 -1136 -618 -698 -376 -743 -402 -756 -435 -22 -54 -442 -1047 -509 -1205 -33 -77 -66 -160 -74 -185 -8 -27 -42 -388 -84 -894 l-71 -849 -129 -733 c-72 -402 -130 -745 -130 -761 0 -28 17 -146 185 -1263 76 -508 102 -650 220 -1220 73 -355 135 -655 137 -668 3 -19 12 -10 64 55 33 43 179 229 324 413 145 184 352 448 460 585 475 606 644 821 654 833 11 11 628 45 1846 103 129 6 708 53 1285 105 909 81 1089 94 1340 100 l290 6 367 -177 366 -178 189 -434 188 -434 210 -153 c116 -84 482 -350 815 -591 333 -241 647 -469 699 -507 52 -38 96 -67 98 -65 2 2 104 432 227 956 l223 951 -43 208 c-24 114 -124 599 -223 1078 -100 478 -185 915 -191 970 -6 54 -26 270 -45 479 -19 209 -69 746 -110 1194 l-75 813 -267 527 c-146 289 -272 533 -280 543 -8 9 -186 128 -396 265 -210 136 -558 363 -773 503 l-391 255 -259 305 -260 305 -277 39 c-153 21 -280 37 -283 33 -3 -3 31 -155 76 -339 45 -183 93 -380 106 -438 14 -58 27 -112 30 -121 4 -16 -90 -105 -757 -721 l-107 -98 -314 0 c-173 0 -451 3 -617 7 l-302 6 -47 57 c-26 31 -132 162 -237 291 -104 128 -252 309 -327 402 -76 92 -138 171 -138 175 0 4 27 186 60 405 33 219 60 403 60 408 0 12 16 13 -271 -31z"/>
		</a>
		<a xlink:href="https://philipnewcomer.net/wordpress-plugins/">
			<path d="M2805 2969 c-1101 -61 -1238 -69 -1240 -71 -1 -2 49 -349 111 -773 l112 -770 -89 -520 c-49 -286 -89 -525 -89 -531 0 -6 154 -52 343 -104 l342 -93 925 -17 c509 -10 1717 -33 2685 -50 l1760 -33 435 128 c239 70 458 134 485 142 50 14 50 15 47 51 -2 20 -20 398 -41 840 -21 442 -41 805 -44 808 -3 3 -88 12 -189 20 -101 7 -370 38 -598 68 -228 30 -570 75 -760 100 -190 25 -535 70 -767 101 l-421 55 -484 144 c-266 79 -683 203 -928 276 -245 72 -539 160 -655 194 -115 35 -221 65 -235 68 -14 3 -331 -12 -705 -33z"/>
		</a>
	</g>
</svg>
